<?xml version="1.0" encoding="utf-8"?>
<!-- Generator: Adobe Illustrator 22.0.1, SVG Export Plug-In . SVG Version: 6.00 Build 0)  -->
<svg version="1.1" id="图层_1" xmlns="http://www.w3.org/2000/svg" xmlns:xlink="http://www.w3.org/1999/xlink" x="0px" y="0px"
	 viewBox="0 0 60 60" style="enable-background:new 0 0 60 60;" xml:space="preserve">
<style type="text/css">
	.st0{fill:#525558;}
</style>
<title>未登录/icon-competition</title>
<desc>Created with Sketch.</desc>
<g>
	<path class="st0" d="M14.4,25c0,7.6,5.7,13.9,13,14.9v6.4h-8v4h20v-4h-8v-6.4c7.3-1,13-7.3,13-14.9V7h-30V25z M18.4,11h22v14
		c0,6.1-4.9,11-11,11c-6.1,0-11-4.9-11-11V11z"/>
	<path class="st0" d="M10,9.9c-1.1,0-2,0.9-2,2v11.6c0,1.1,0.9,2,2,2s2-0.9,2-2V11.9C12,10.8,11.1,9.9,10,9.9z"/>
	<path class="st0" d="M48.8,9.9c-1.1,0-2,0.9-2,2v11.6c0,1.1,0.9,2,2,2s2-0.9,2-2V11.9C50.8,10.8,49.9,9.9,48.8,9.9z"/>
</g>
</svg>
