<?xml version="1.0" encoding="utf-8"?>
<!-- Generator: Adobe Illustrator 22.0.1, SVG Export Plug-In . SVG Version: 6.00 Build 0)  -->
<svg version="1.1" id="图层_1" xmlns="http://www.w3.org/2000/svg" xmlns:xlink="http://www.w3.org/1999/xlink" x="0px" y="0px"
	 viewBox="0 0 60 60" style="enable-background:new 0 0 60 60;" xml:space="preserve">
<style type="text/css">
	.st0{fill:#525558;}
</style>
<title>未登录/icon-competition copy</title>
<desc>Created with Sketch.</desc>
<g>
	<path class="st0" d="M39.1,14.1c-1-0.5-2.2-0.2-2.7,0.8L30,26.7l-6.4-11.8c-0.5-1-1.7-1.3-2.7-0.8c-1,0.5-1.3,1.7-0.8,2.7L27,29.5
		h-6.3v4H28v2.9h-7.3v4H28v3.8h4v-3.8h7.3v-4H32v-2.9h7.3v-4H33l6.8-12.7C40.4,15.8,40,14.6,39.1,14.1z"/>
	<path class="st0" d="M30,4C15.7,4,4,15.7,4,30c0,14.3,11.7,26,26,26c14.3,0,26-11.7,26-26C56,15.7,44.3,4,30,4z M30,52
		C17.9,52,8,42.1,8,30S17.9,8,30,8s22,9.9,22,22S42.1,52,30,52z"/>
</g>
</svg>
