<?xml version="1.0" encoding="utf-8"?>
<!-- Generator: Adobe Illustrator 22.0.1, SVG Export Plug-In . SVG Version: 6.00 Build 0)  -->
<svg version="1.1" id="图层_1" xmlns="http://www.w3.org/2000/svg" xmlns:xlink="http://www.w3.org/1999/xlink" x="0px" y="0px"
	 viewBox="0 0 60 60" style="enable-background:new 0 0 60 60;" xml:space="preserve">
<style type="text/css">
	.st0{fill:#525558;}
</style>
<title>未登录/icon-clan</title>
<desc>Created with Sketch.</desc>
<g id="Page-1" transform="translate(8.000000, 9.000000)">
	<g id="Stroke-1">
		<path class="st0" d="M36,43h-4v-6.2c0-3.6-2.9-6.5-6.5-6.5h-17c-3.6,0-6.5,2.9-6.5,6.5V43h-4v-6.2c0-5.8,4.7-10.5,10.5-10.5h17
			c5.8,0,10.5,4.7,10.5,10.5V43z"/>
	</g>
	<g id="Stroke-3">
		<path class="st0" d="M17,23.9C9.8,23.9,4,18.1,4,10.9C4,3.8,9.8-2,17-2c7.1,0,12.9,5.8,12.9,12.9C29.9,18.1,24.1,23.9,17,23.9z
			 M17,2C12.1,2,8,6,8,10.9c0,4.9,4,8.9,8.9,8.9s8.9-4,8.9-8.9C25.9,6,21.9,2,17,2z"/>
	</g>
	<g id="Stroke-5">
		<path class="st0" d="M46.7,43h-4v-6.2c0-3-2-5.5-4.9-6.3l-1.9-0.5l1-3.9l1.9,0.5c4.6,1.2,7.9,5.4,7.9,10.1V43z"/>
	</g>
	<g id="Stroke-7">
		<path class="st0" d="M31.8,23.9c-0.9,0-1.7-0.6-1.9-1.5c-0.3-1.1,0.4-2.2,1.4-2.4c3.4-0.9,5.8-4,5.8-7.5c0-3.5-2.4-6.6-5.8-7.5
			c-1.1-0.3-1.7-1.4-1.4-2.4c0.3-1.1,1.4-1.7,2.4-1.4c5.2,1.3,8.8,6,8.8,11.4c0,5.4-3.6,10-8.8,11.4C32.2,23.9,32,23.9,31.8,23.9z"
			/>
	</g>
</g>
</svg>
