<?xml version="1.0" encoding="utf-8"?>
<!-- Generator: Adobe Illustrator 22.0.1, SVG Export Plug-In . SVG Version: 6.00 Build 0)  -->
<svg version="1.1" id="图层_1" xmlns="http://www.w3.org/2000/svg" xmlns:xlink="http://www.w3.org/1999/xlink" x="0px" y="0px"
	 viewBox="0 0 60 60" style="enable-background:new 0 0 60 60;" xml:space="preserve">
<style type="text/css">
	.st0{fill:#525558;}
</style>
<title>未登录/icon-find</title>
<desc>Created with Sketch.</desc>
<g id="Symbols">
	<g id="未登录_x2F_icon-find">
		<g id="Page-1" transform="translate(7.000000, 7.000000)">
			<g id="Stroke-3">
				<path class="st0" d="M15,32C5.6,32-2,24.4-2,15S5.6-2,15-2s17,7.6,17,17S24.4,32,15,32z M15,2C7.8,2,2,7.8,2,15s5.8,13,13,13
					s13-5.8,13-13S22.2,2,15,2z"/>
			</g>
			<g id="Fill-5">
				<path class="st0" d="M44.6,43.9L44.6,43.9c-1.3,1.3-3.3,1.5-4.3,0.5c-4.6-4.9-7.5-8.1-12-12.9c-1-1.1-0.9-2.8,0.1-3.8
					c1-1,2.7-1.1,3.8-0.1c4.9,4.6,8,7.5,12.9,12C46.1,40.6,45.9,42.6,44.6,43.9"/>
			</g>
		</g>
	</g>
</g>
</svg>
