<?xml version="1.0" encoding="UTF-8"?>
<svg width="22px" height="22px" viewBox="0 0 22 22" version="1.1" xmlns="http://www.w3.org/2000/svg" xmlns:xlink="http://www.w3.org/1999/xlink">
    <!-- Generator: Sketch 45.1 (43504) - http://www.bohemiancoding.com/sketch -->
    <title>icon/签约摄影师 22 blue</title>
    <desc>Created with Sketch.</desc>
    <defs>
        <path d="M11,22 C4.92506667,22 0,17.0749333 0,11 C0,4.92506667 4.92506667,0 11,0 C17.0749333,0 22,4.92506667 22,11 C22,17.0749333 17.0749333,22 11,22 Z" id="path-1"></path>
    </defs>
    <g id="Symbols" stroke="none" stroke-width="1" fill="none" fill-rule="evenodd">
        <g id="icon/签约摄影师-22-blue">
            <g id="Page-1">
                <g id="Fill-1">
                    <use fill="#0099E5" fill-rule="evenodd" xlink:href="#path-1"></use>
                    <path stroke="#FFFFFF" stroke-width="1" d="M11,21.5 C16.798791,21.5 21.5,16.798791 21.5,11 C21.5,5.20120904 16.798791,0.5 11,0.5 C5.20120904,0.5 0.5,5.20120904 0.5,11 C0.5,16.798791 5.20120904,21.5 11,21.5 Z"></path>
                </g>
                <path d="M13.5457274,8.15566541 L12.9880144,8.15566541 C12.9053927,7.95671805 12.8640819,7.75418421 12.8640819,7.54830075 C12.8640819,7.34241729 12.9036276,7.19831579 12.9828548,7.11596241 C13.0619122,7.03357519 13.1910382,6.9923985 13.3701309,6.9923985 L16.0760404,6.9923985 C16.165451,7.18461278 16.2102921,7.39049624 16.2102921,7.61008271 C16.2102921,7.82286842 16.165451,7.96700376 16.0760404,8.04242105 C15.9864601,8.11804135 15.83157,8.15566541 15.6113022,8.15566541 L15.446025,8.15566541 C15.1912354,8.84893609 14.6627488,10.3861429 13.8607011,12.7675226 C13.0585177,15.1490714 12.538755,16.4976165 12.3012093,16.8131917 C12.0636636,17.1288008 11.6934956,17.2867406 11.1909768,17.2867406 C10.3715155,17.2867406 9.93257531,17.2489474 9.87415632,17.1734962 C9.8155676,17.0979098 9.4094181,15.8833496 8.65547022,13.5293083 C7.90155628,11.1754361 7.44194373,9.78057143 7.27670046,9.34468045 C7.11145719,8.90892481 6.97364132,8.59832331 6.86355834,8.41301128 C6.75333959,8.22773308 6.62944108,8.11286466 6.49176098,8.06816917 C6.35397905,8.02360902 6.16470286,8.0012782 5.9237627,8.0012782 C5.83418238,7.78169173 5.78947708,7.57580827 5.78947708,7.38359398 C5.78947708,7.17771053 5.8979307,7.04389474 6.11480401,6.98211278 C6.33171126,6.92033083 6.92893602,6.88947368 7.90671589,6.88947368 C8.33353777,6.88947368 8.62967218,6.92388346 8.7948815,6.9923985 C8.96012477,7.06108271 9.08568658,7.18126316 9.17183847,7.35270301 C9.25788853,7.52434586 9.36118255,7.92758647 9.48168658,8.56228947 C9.60208877,9.19716165 9.94981927,10.5063233 10.5248102,12.4895714 C11.0995974,14.4730226 11.4197987,15.4646466 11.4853122,15.4646466 C11.5506898,15.4646466 11.8881011,14.426703 12.4974442,12.3506128 C13.1067533,10.2746917 13.4561471,8.87627444 13.5457274,8.15566541" id="Fill-1" fill="#FFFFFF"></path>
            </g>
        </g>
    </g>
</svg>